<mxfile host="app.diagrams.net" agent="Mozilla/5.0 (Windows NT 10.0; Win64; x64) AppleWebKit/537.36 (KHTML, like Gecko) Chrome/131.0.0.0 Safari/537.36" version="26.0.4">
  <diagram name="Página-1" id="67WZV432nv21NKVhg4M0">
    <mxGraphModel dx="1842" dy="762" grid="1" gridSize="10" guides="1" tooltips="1" connect="1" arrows="1" fold="1" page="1" pageScale="1" pageWidth="827" pageHeight="1169" math="0" shadow="0">
      <root>
        <mxCell id="0" />
        <mxCell id="1" parent="0" />
        <mxCell id="0m0EI_0envqVc7ozbYIb-1" value="Questão 1: E" style="text;html=1;align=center;verticalAlign=middle;whiteSpace=wrap;rounded=0;" parent="1" vertex="1">
          <mxGeometry x="50" y="80" width="80" height="30" as="geometry" />
        </mxCell>
        <mxCell id="0m0EI_0envqVc7ozbYIb-2" value="Avaliação 3º Trimestre - Intro. ao Desenvolvimento de Sistemas EMI&lt;div&gt;Nicolas Eisfeld Ferreira&lt;/div&gt;" style="text;html=1;align=left;verticalAlign=middle;whiteSpace=wrap;rounded=0;fontSize=20;" parent="1" vertex="1">
          <mxGeometry x="30" y="30" width="620" height="30" as="geometry" />
        </mxCell>
        <mxCell id="0m0EI_0envqVc7ozbYIb-3" value="Questão 2: D" style="text;html=1;align=center;verticalAlign=middle;whiteSpace=wrap;rounded=0;" parent="1" vertex="1">
          <mxGeometry x="50" y="110" width="80" height="30" as="geometry" />
        </mxCell>
        <mxCell id="0m0EI_0envqVc7ozbYIb-4" value="&lt;font data-font-src=&quot;https://github.com/IdreesInc/Monocraft/releases/download/v4.0/Monocraft.ttc&quot; face=&quot;Monocraft&quot;&gt;Sistema Para Automação de Publicações&lt;/font&gt;" style="text;html=1;align=center;verticalAlign=middle;whiteSpace=wrap;rounded=0;fontSize=20;" parent="1" vertex="1">
          <mxGeometry x="148" y="200" width="531" height="40" as="geometry" />
        </mxCell>
        <mxCell id="0m0EI_0envqVc7ozbYIb-5" value="Publicações" style="swimlane;fontStyle=1;align=center;verticalAlign=top;childLayout=stackLayout;horizontal=1;startSize=26;horizontalStack=0;resizeParent=1;resizeParentMax=0;resizeLast=0;collapsible=1;marginBottom=0;whiteSpace=wrap;html=1;" parent="1" vertex="1">
          <mxGeometry x="148" y="480" width="160" height="130" as="geometry" />
        </mxCell>
        <mxCell id="0m0EI_0envqVc7ozbYIb-6" value="+ titulo: string&lt;div&gt;+ autor: string&lt;/div&gt;&lt;div&gt;+ data: string&lt;/div&gt;" style="text;strokeColor=none;fillColor=none;align=left;verticalAlign=top;spacingLeft=4;spacingRight=4;overflow=hidden;rotatable=0;points=[[0,0.5],[1,0.5]];portConstraint=eastwest;whiteSpace=wrap;html=1;" parent="0m0EI_0envqVc7ozbYIb-5" vertex="1">
          <mxGeometry y="26" width="160" height="54" as="geometry" />
        </mxCell>
        <mxCell id="0m0EI_0envqVc7ozbYIb-7" value="" style="line;strokeWidth=1;fillColor=none;align=left;verticalAlign=middle;spacingTop=-1;spacingLeft=3;spacingRight=3;rotatable=0;labelPosition=right;points=[];portConstraint=eastwest;strokeColor=inherit;" parent="0m0EI_0envqVc7ozbYIb-5" vertex="1">
          <mxGeometry y="80" width="160" height="8" as="geometry" />
        </mxCell>
        <mxCell id="0m0EI_0envqVc7ozbYIb-8" value="+ cadastrar(): void&lt;div&gt;+ exibir(): void&lt;/div&gt;" style="text;strokeColor=none;fillColor=none;align=left;verticalAlign=top;spacingLeft=4;spacingRight=4;overflow=hidden;rotatable=0;points=[[0,0.5],[1,0.5]];portConstraint=eastwest;whiteSpace=wrap;html=1;" parent="0m0EI_0envqVc7ozbYIb-5" vertex="1">
          <mxGeometry y="88" width="160" height="42" as="geometry" />
        </mxCell>
        <mxCell id="0m0EI_0envqVc7ozbYIb-9" value="Livro" style="swimlane;fontStyle=1;align=center;verticalAlign=top;childLayout=stackLayout;horizontal=1;startSize=26;horizontalStack=0;resizeParent=1;resizeParentMax=0;resizeLast=0;collapsible=1;marginBottom=0;whiteSpace=wrap;html=1;" parent="1" vertex="1">
          <mxGeometry x="148" y="740" width="160" height="110" as="geometry" />
        </mxCell>
        <mxCell id="0m0EI_0envqVc7ozbYIb-10" value="+ ISBN: string&lt;div&gt;+ num_pag: int&lt;/div&gt;" style="text;strokeColor=none;fillColor=none;align=left;verticalAlign=top;spacingLeft=4;spacingRight=4;overflow=hidden;rotatable=0;points=[[0,0.5],[1,0.5]];portConstraint=eastwest;whiteSpace=wrap;html=1;" parent="0m0EI_0envqVc7ozbYIb-9" vertex="1">
          <mxGeometry y="26" width="160" height="44" as="geometry" />
        </mxCell>
        <mxCell id="0m0EI_0envqVc7ozbYIb-11" value="" style="line;strokeWidth=1;fillColor=none;align=left;verticalAlign=middle;spacingTop=-1;spacingLeft=3;spacingRight=3;rotatable=0;labelPosition=right;points=[];portConstraint=eastwest;strokeColor=inherit;" parent="0m0EI_0envqVc7ozbYIb-9" vertex="1">
          <mxGeometry y="70" width="160" height="8" as="geometry" />
        </mxCell>
        <mxCell id="0m0EI_0envqVc7ozbYIb-12" value="+ exibirNroPaginas(): void" style="text;strokeColor=none;fillColor=none;align=left;verticalAlign=top;spacingLeft=4;spacingRight=4;overflow=hidden;rotatable=0;points=[[0,0.5],[1,0.5]];portConstraint=eastwest;whiteSpace=wrap;html=1;" parent="0m0EI_0envqVc7ozbYIb-9" vertex="1">
          <mxGeometry y="78" width="160" height="32" as="geometry" />
        </mxCell>
        <mxCell id="0m0EI_0envqVc7ozbYIb-17" value="" style="endArrow=block;endSize=16;endFill=0;html=1;rounded=0;edgeStyle=orthogonalEdgeStyle;" parent="1" edge="1">
          <mxGeometry width="160" relative="1" as="geometry">
            <mxPoint x="230" y="740" as="sourcePoint" />
            <mxPoint x="224" y="613" as="targetPoint" />
            <Array as="points">
              <mxPoint x="230" y="680" />
              <mxPoint x="360" y="680" />
              <mxPoint x="360" y="650" />
              <mxPoint x="224" y="650" />
            </Array>
          </mxGeometry>
        </mxCell>
        <mxCell id="0m0EI_0envqVc7ozbYIb-18" value="" style="endArrow=none;html=1;rounded=0;exitX=0.5;exitY=0;exitDx=0;exitDy=0;" parent="1" source="0m0EI_0envqVc7ozbYIb-19" edge="1">
          <mxGeometry width="50" height="50" relative="1" as="geometry">
            <mxPoint x="488" y="780" as="sourcePoint" />
            <mxPoint x="230" y="680" as="targetPoint" />
            <Array as="points">
              <mxPoint x="490" y="680" />
            </Array>
          </mxGeometry>
        </mxCell>
        <mxCell id="0m0EI_0envqVc7ozbYIb-19" value="Revista" style="swimlane;fontStyle=1;align=center;verticalAlign=top;childLayout=stackLayout;horizontal=1;startSize=26;horizontalStack=0;resizeParent=1;resizeParentMax=0;resizeLast=0;collapsible=1;marginBottom=0;whiteSpace=wrap;html=1;" parent="1" vertex="1">
          <mxGeometry x="410" y="740" width="160" height="86" as="geometry" />
        </mxCell>
        <mxCell id="0m0EI_0envqVc7ozbYIb-20" value="+ numero: int" style="text;strokeColor=none;fillColor=none;align=left;verticalAlign=top;spacingLeft=4;spacingRight=4;overflow=hidden;rotatable=0;points=[[0,0.5],[1,0.5]];portConstraint=eastwest;whiteSpace=wrap;html=1;" parent="0m0EI_0envqVc7ozbYIb-19" vertex="1">
          <mxGeometry y="26" width="160" height="26" as="geometry" />
        </mxCell>
        <mxCell id="0m0EI_0envqVc7ozbYIb-21" value="" style="line;strokeWidth=1;fillColor=none;align=left;verticalAlign=middle;spacingTop=-1;spacingLeft=3;spacingRight=3;rotatable=0;labelPosition=right;points=[];portConstraint=eastwest;strokeColor=inherit;" parent="0m0EI_0envqVc7ozbYIb-19" vertex="1">
          <mxGeometry y="52" width="160" height="8" as="geometry" />
        </mxCell>
        <mxCell id="0m0EI_0envqVc7ozbYIb-22" value="+ method(type): type" style="text;strokeColor=none;fillColor=none;align=left;verticalAlign=top;spacingLeft=4;spacingRight=4;overflow=hidden;rotatable=0;points=[[0,0.5],[1,0.5]];portConstraint=eastwest;whiteSpace=wrap;html=1;" parent="0m0EI_0envqVc7ozbYIb-19" vertex="1">
          <mxGeometry y="60" width="160" height="26" as="geometry" />
        </mxCell>
        <mxCell id="0m0EI_0envqVc7ozbYIb-23" value="Empréstimo" style="swimlane;fontStyle=1;align=center;verticalAlign=top;childLayout=stackLayout;horizontal=1;startSize=26;horizontalStack=0;resizeParent=1;resizeParentMax=0;resizeLast=0;collapsible=1;marginBottom=0;whiteSpace=wrap;html=1;" parent="1" vertex="1">
          <mxGeometry x="519" y="530" width="160" height="86" as="geometry" />
        </mxCell>
        <mxCell id="0m0EI_0envqVc7ozbYIb-24" value="+ dataDoEmprestimo: string" style="text;strokeColor=none;fillColor=none;align=left;verticalAlign=top;spacingLeft=4;spacingRight=4;overflow=hidden;rotatable=0;points=[[0,0.5],[1,0.5]];portConstraint=eastwest;whiteSpace=wrap;html=1;" parent="0m0EI_0envqVc7ozbYIb-23" vertex="1">
          <mxGeometry y="26" width="160" height="26" as="geometry" />
        </mxCell>
        <mxCell id="0m0EI_0envqVc7ozbYIb-25" value="" style="line;strokeWidth=1;fillColor=none;align=left;verticalAlign=middle;spacingTop=-1;spacingLeft=3;spacingRight=3;rotatable=0;labelPosition=right;points=[];portConstraint=eastwest;strokeColor=inherit;" parent="0m0EI_0envqVc7ozbYIb-23" vertex="1">
          <mxGeometry y="52" width="160" height="8" as="geometry" />
        </mxCell>
        <mxCell id="0m0EI_0envqVc7ozbYIb-26" value="+ method(type): type" style="text;strokeColor=none;fillColor=none;align=left;verticalAlign=top;spacingLeft=4;spacingRight=4;overflow=hidden;rotatable=0;points=[[0,0.5],[1,0.5]];portConstraint=eastwest;whiteSpace=wrap;html=1;" parent="0m0EI_0envqVc7ozbYIb-23" vertex="1">
          <mxGeometry y="60" width="160" height="26" as="geometry" />
        </mxCell>
        <mxCell id="0m0EI_0envqVc7ozbYIb-29" value="1" style="edgeLabel;html=1;align=center;verticalAlign=middle;resizable=0;points=[];" parent="1" vertex="1" connectable="0">
          <mxGeometry x="244" y="700" as="geometry">
            <mxPoint x="-8" y="29" as="offset" />
          </mxGeometry>
        </mxCell>
        <mxCell id="0m0EI_0envqVc7ozbYIb-30" value="Leitor" style="swimlane;fontStyle=1;align=center;verticalAlign=top;childLayout=stackLayout;horizontal=1;startSize=26;horizontalStack=0;resizeParent=1;resizeParentMax=0;resizeLast=0;collapsible=1;marginBottom=0;whiteSpace=wrap;html=1;" parent="1" vertex="1">
          <mxGeometry x="270" y="270" width="160" height="120" as="geometry" />
        </mxCell>
        <mxCell id="0m0EI_0envqVc7ozbYIb-31" value="+ nome: string&lt;div&gt;+ idade: int&lt;/div&gt;" style="text;strokeColor=none;fillColor=none;align=left;verticalAlign=top;spacingLeft=4;spacingRight=4;overflow=hidden;rotatable=0;points=[[0,0.5],[1,0.5]];portConstraint=eastwest;whiteSpace=wrap;html=1;" parent="0m0EI_0envqVc7ozbYIb-30" vertex="1">
          <mxGeometry y="26" width="160" height="44" as="geometry" />
        </mxCell>
        <mxCell id="0m0EI_0envqVc7ozbYIb-32" value="" style="line;strokeWidth=1;fillColor=none;align=left;verticalAlign=middle;spacingTop=-1;spacingLeft=3;spacingRight=3;rotatable=0;labelPosition=right;points=[];portConstraint=eastwest;strokeColor=inherit;" parent="0m0EI_0envqVc7ozbYIb-30" vertex="1">
          <mxGeometry y="70" width="160" height="8" as="geometry" />
        </mxCell>
        <mxCell id="0m0EI_0envqVc7ozbYIb-33" value="+ emprestrar(): void&lt;div&gt;+ ler(): void&lt;/div&gt;" style="text;strokeColor=none;fillColor=none;align=left;verticalAlign=top;spacingLeft=4;spacingRight=4;overflow=hidden;rotatable=0;points=[[0,0.5],[1,0.5]];portConstraint=eastwest;whiteSpace=wrap;html=1;" parent="0m0EI_0envqVc7ozbYIb-30" vertex="1">
          <mxGeometry y="78" width="160" height="42" as="geometry" />
        </mxCell>
        <mxCell id="0m0EI_0envqVc7ozbYIb-34" value="" style="endArrow=none;html=1;edgeStyle=orthogonalEdgeStyle;rounded=0;entryX=0;entryY=0.5;entryDx=0;entryDy=0;exitX=0.5;exitY=0;exitDx=0;exitDy=0;" parent="1" source="0m0EI_0envqVc7ozbYIb-5" target="0m0EI_0envqVc7ozbYIb-31" edge="1">
          <mxGeometry relative="1" as="geometry">
            <mxPoint x="160" y="430" as="sourcePoint" />
            <mxPoint x="290" y="430" as="targetPoint" />
            <Array as="points">
              <mxPoint x="228" y="318" />
            </Array>
          </mxGeometry>
        </mxCell>
        <mxCell id="0m0EI_0envqVc7ozbYIb-36" value="empresta" style="edgeLabel;resizable=0;html=1;align=right;verticalAlign=bottom;" parent="0m0EI_0envqVc7ozbYIb-34" connectable="0" vertex="1">
          <mxGeometry x="1" relative="1" as="geometry">
            <mxPoint x="-50" y="82" as="offset" />
          </mxGeometry>
        </mxCell>
        <mxCell id="0m0EI_0envqVc7ozbYIb-37" value="0..*" style="edgeLabel;html=1;align=center;verticalAlign=middle;resizable=0;points=[];" parent="0m0EI_0envqVc7ozbYIb-34" vertex="1" connectable="0">
          <mxGeometry x="0.8333" y="-1" relative="1" as="geometry">
            <mxPoint x="-13" y="151" as="offset" />
          </mxGeometry>
        </mxCell>
        <mxCell id="0m0EI_0envqVc7ozbYIb-38" value="1" style="edgeLabel;html=1;align=center;verticalAlign=middle;resizable=0;points=[];" parent="0m0EI_0envqVc7ozbYIb-34" vertex="1" connectable="0">
          <mxGeometry x="-0.8824" relative="1" as="geometry">
            <mxPoint x="32" y="-138" as="offset" />
          </mxGeometry>
        </mxCell>
        <mxCell id="wX29MLQEkkPdep5bVA5S-1" value="" style="endArrow=diamondThin;endFill=0;endSize=24;html=1;rounded=0;exitX=0;exitY=0.5;exitDx=0;exitDy=0;entryX=1.006;entryY=0.048;entryDx=0;entryDy=0;entryPerimeter=0;" edge="1" parent="1" source="0m0EI_0envqVc7ozbYIb-24" target="0m0EI_0envqVc7ozbYIb-8">
          <mxGeometry width="160" relative="1" as="geometry">
            <mxPoint x="519" y="569" as="sourcePoint" />
            <mxPoint x="228" y="620" as="targetPoint" />
            <Array as="points">
              <mxPoint x="430" y="570" />
              <mxPoint x="360" y="570" />
            </Array>
          </mxGeometry>
        </mxCell>
        <mxCell id="wX29MLQEkkPdep5bVA5S-2" value="1..*" style="edgeLabel;html=1;align=center;verticalAlign=middle;resizable=0;points=[];" vertex="1" connectable="0" parent="wX29MLQEkkPdep5bVA5S-1">
          <mxGeometry x="0.7098" y="-2" relative="1" as="geometry">
            <mxPoint x="8" y="12" as="offset" />
          </mxGeometry>
        </mxCell>
      </root>
    </mxGraphModel>
  </diagram>
</mxfile>
